<?xml version="1.0" standalone="no"?>
<!DOCTYPE svg PUBLIC "-//W3C//DTD SVG 20010904//EN"
 "http://www.w3.org/TR/2001/REC-SVG-20010904/DTD/svg10.dtd">
<svg version="1.0" xmlns="http://www.w3.org/2000/svg"
 width="643.000000pt" height="442.000000pt" viewBox="0 0 643.000000 442.000000"
 preserveAspectRatio="xMidYMid meet">

<g transform="translate(0.000000,442.000000) scale(0.100000,-0.100000)"
fill="#000000" stroke="none">
<path d="M0 2210 l0 -2210 3215 0 3215 0 0 2210 0 2210 -3215 0 -3215 0 0
-2210z m2256 1953 c-16 -4 -11 -8 19 -19 21 -7 42 -11 46 -9 8 6 43 -33 45
-48 0 -7 4 -28 9 -47 7 -29 9 -31 16 -15 4 11 8 -763 8 -1720 1 -1127 -3
-1735 -9 -1725 -6 9 -10 10 -10 3 0 -6 -3 -20 -6 -30 -5 -15 -4 -15 5 -3 6 8
11 10 11 4 0 -5 -7 -19 -16 -30 -8 -10 -12 -12 -8 -4 4 8 -11 -2 -34 -22 -23
-21 -50 -38 -60 -38 -11 0 -13 -3 -5 -8 6 -4 -375 -7 -847 -7 -472 0 -853 3
-847 7 8 5 6 8 -5 8 -10 0 -37 17 -60 38 -23 20 -38 30 -34 22 4 -8 0 -6 -8 4
-9 11 -16 25 -16 30 0 6 5 4 11 -4 9 -12 10 -12 5 3 -3 10 -6 24 -6 30 0 7 -4
6 -10 -3 -6 -10 -9 598 -9 1725 0 957 3 1734 6 1726 4 -9 10 -3 19 19 8 17 12
35 9 40 -5 9 32 44 48 46 7 0 28 4 47 9 29 7 31 9 15 16 -11 4 365 7 835 7
470 0 846 -3 836 -5z m2174 -4 c-11 -8 -8 -9 13 -4 21 4 27 3 21 -6 -5 -9 -2
-10 9 -6 20 7 63 -25 82 -63 17 -32 20 -53 5 -30 -7 11 -8 5 -4 -20 8 -42 13
-50 16 -24 2 10 5 -570 8 -1291 5 -1301 5 -1310 -15 -1328 -19 -18 -19 -18 7
-1 15 9 25 20 22 25 -3 5 -1 9 4 9 6 0 12 205 15 503 3 335 9 515 17 540 15
49 48 64 172 77 122 13 116 13 121 -12 2 -13 2 -3 0 21 -3 29 -1 41 6 37 7 -5
9 4 4 25 -5 24 -3 30 7 24 9 -6 10 -2 5 15 -5 16 -4 20 5 15 9 -5 10 -1 5 15
-5 16 -4 20 5 15 9 -5 10 -1 5 15 -5 16 -4 20 5 15 9 -5 10 -1 5 15 -5 16 -4
20 5 15 9 -5 10 -1 5 15 -5 17 -4 21 5 15 9 -5 11 -4 6 4 -10 16 3 53 16 45 6
-4 8 1 3 16 -5 17 -4 21 5 15 9 -5 11 -4 6 4 -10 16 13 73 27 64 6 -4 8 0 4 9
-5 15 9 32 57 68 18 13 19 13 12 0 -4 -8 1 -4 12 9 10 13 24 21 30 17 6 -3 14
-1 18 5 4 8 3 9 -4 5 -7 -4 -12 -5 -12 -2 0 3 27 20 61 36 34 17 58 27 54 21
-3 -7 0 -8 9 -5 9 3 13 11 9 17 -4 7 12 8 51 3 43 -5 56 -3 50 5 -5 9 10 11
60 6 48 -5 65 -3 60 5 -5 8 11 9 60 5 42 -4 65 -3 61 3 -4 6 18 10 55 10 44 0
59 -3 54 -12 -5 -8 -2 -9 11 -4 21 8 58 -2 50 -14 -3 -4 2 -11 11 -14 10 -4
13 -2 8 6 -10 16 75 -33 89 -52 11 -13 10 -13 -8 0 -19 14 -19 14 -6 -2 7 -10
17 -15 22 -12 5 3 28 -14 52 -38 24 -24 29 -32 12 -18 l-30 25 29 -32 c16 -18
33 -30 37 -27 11 6 92 -73 85 -84 -3 -5 4 -18 17 -28 l22 -19 -20 25 c-17 20
-17 22 -2 11 10 -8 30 -34 44 -58 21 -36 24 -52 19 -84 -5 -30 -3 -39 5 -33 9
5 10 -3 5 -31 -5 -25 -4 -35 3 -30 19 11 12 -31 -10 -59 -27 -35 -192 -118
-215 -109 -12 5 -15 3 -9 -6 6 -10 2 -11 -15 -6 -12 4 -20 3 -17 -1 3 -5 -44
-10 -104 -11 -68 -1 -107 2 -104 8 4 6 -15 7 -51 3 -41 -5 -55 -4 -50 4 5 8
-8 9 -45 5 -40 -5 -50 -3 -45 6 6 9 -1 11 -28 6 -20 -4 -44 -4 -53 0 -30 13
-55 16 -48 5 4 -6 -12 -10 -40 -10 -26 0 -44 4 -40 9 3 5 1 12 -4 16 -6 3 -8
-4 -6 -15 2 -11 9 -163 16 -338 12 -340 9 -603 -9 -624 -8 -10 -3 -13 23 -13
18 0 31 4 28 9 -4 5 -1 6 6 2 7 -5 9 -16 5 -28 -4 -14 -2 -18 5 -14 7 5 11 -4
11 -27 0 -34 -41 -86 -71 -90 -18 -3 -91 -48 -86 -53 2 -2 25 7 51 22 38 21
49 24 62 13 19 -16 41 -54 25 -45 -7 5 -9 1 -5 -8 3 -9 11 -13 16 -10 6 4 7
-2 3 -16 -5 -15 -4 -20 4 -16 7 5 11 -8 11 -39 0 -31 -4 -44 -11 -39 -8 4 -9
0 -4 -15 4 -14 2 -21 -6 -21 -7 0 -9 -3 -6 -6 3 -4 2 -15 -4 -25 -12 -24 -186
-112 -201 -103 -7 5 -8 2 -3 -6 6 -9 4 -12 -6 -8 -8 3 -44 -9 -79 -28 -36 -18
-61 -33 -57 -34 4 0 34 14 67 30 48 24 60 27 60 15 0 -10 -5 -13 -12 -9 -8 5
-9 2 -5 -9 7 -20 -2 -49 -13 -42 -4 3 -11 -2 -14 -11 -4 -10 -2 -13 6 -8 6 4
2 -8 -8 -25 -19 -34 -67 -74 -76 -65 -3 2 -11 -3 -19 -13 -9 -11 -10 -14 -1
-9 6 4 12 3 12 -3 0 -5 -5 -12 -10 -14 -6 -3 -5 -4 2 -3 7 2 12 10 12 19 -1 9
2 14 7 11 5 -3 9 -25 9 -49 0 -38 -4 -47 -33 -68 -46 -35 -156 -89 -167 -82
-6 4 -10 1 -10 -5 0 -6 -4 -8 -10 -5 -5 3 -10 1 -10 -5 0 -6 -4 -8 -10 -5 -5
3 -10 1 -10 -5 0 -7 -7 -9 -16 -6 -9 4 -13 2 -8 -5 5 -9 -4 -10 -31 -5 -28 6
-35 4 -29 -5 5 -9 -6 -11 -50 -5 -42 5 -56 3 -50 -5 5 -9 -8 -10 -48 -7 -49 4
-56 2 -73 -21 l-18 -26 29 25 29 25 -24 -27 c-14 -16 -29 -24 -39 -21 -9 4
-13 2 -9 -4 5 -7 -1 -9 -15 -6 -19 4 -20 3 -8 -7 12 -10 10 -11 -10 -6 -14 3
-49 6 -78 6 -40 0 -51 3 -46 13 10 15 -22 -9 -53 -40 -26 -27 -51 -29 -79 -8
-16 12 -121 15 -709 17 l-690 3 675 5 675 5 -707 2 c-429 1 -714 6 -725 12
-10 5 -27 19 -38 32 -11 12 -14 19 -6 14 9 -5 12 -3 9 6 -3 8 -11 14 -18 14
-7 0 -15 7 -17 15 -4 13 -3 13 7 0 10 -13 11 -12 6 3 -3 10 -6 24 -6 30 0 9
-2 9 -8 0 -8 -13 -5 3471 3 3498 7 22 81 89 98 89 6 0 3 -6 -8 -12 -30 -16
-65 -50 -77 -73 -6 -11 4 -3 21 17 17 20 47 43 66 49 23 9 31 16 22 21 -6 4
371 8 838 8 604 0 846 -3 835 -11z m-3870 -3 c0 -2 -7 -7 -16 -10 -8 -3 -12
-2 -9 4 6 10 25 14 25 6z m1745 -6 c3 -6 -1 -7 -9 -4 -18 7 -21 14 -7 14 6 0
13 -4 16 -10z m-1842 -85 c-3 -9 -8 -14 -10 -11 -3 3 -2 9 2 15 9 16 15 13 8
-4z m1925 -10 c-3 -3 -9 2 -12 12 -6 14 -5 15 5 6 7 -7 10 -15 7 -18z m3161
-1810 c58 -29 66 -124 14 -165 -52 -41 -122 -19 -143 45 -17 52 6 106 55 126
29 12 43 11 74 -6z m26 -267 c68 -81 -24 -197 -117 -147 -27 14 -50 73 -42
107 11 47 42 72 90 72 35 0 47 -5 69 -32z m-5026 -1525 c2 -2 0 -3 -5 -3 -5 0
-22 12 -39 26 l-30 26 35 -23 c19 -12 37 -24 39 -26z m1786 22 c-16 -14 -34
-25 -40 -25 -9 0 55 49 65 49 3 0 -8 -11 -25 -24z m-507 -42 c-225 -2 -591 -2
-815 0 -225 1 -41 2 407 2 448 0 632 -1 408 -2z m2549 0 c-20 -2 -52 -2 -70 0
-17 2 0 4 38 4 39 0 53 -2 32 -4z"/>
<path d="M494 4108 l-19 -23 23 19 c21 18 27 26 19 26 -2 0 -12 -10 -23 -22z"/>
<path d="M2335 4110 c10 -11 20 -20 23 -20 3 0 -3 9 -13 20 -10 11 -20 20 -23
20 -3 0 3 -9 13 -20z"/>
<path d="M724 4025 c-8 -21 4 -35 32 -35 19 0 24 5 24 25 0 20 -5 25 -25 25
-14 0 -28 -7 -31 -15z"/>
<path d="M897 4033 c-13 -12 -7 -41 9 -47 9 -3 233 -6 499 -6 415 0 484 2 495
15 7 8 10 22 6 30 -5 13 -68 15 -504 15 -274 0 -502 -3 -505 -7z"/>
<path d="M1348 2983 c17 -2 47 -2 65 0 17 2 3 4 -33 4 -36 0 -50 -2 -32 -4z"/>
<path d="M1288 2973 c7 -3 16 -2 19 1 4 3 -2 6 -13 5 -11 0 -14 -3 -6 -6z"/>
<path d="M1485 2970 c17 -4 39 -8 50 -8 16 0 15 2 -5 8 -14 4 -36 8 -50 8 -22
0 -22 -1 5 -8z"/>
<path d="M1177 2930 c-46 -29 -137 -116 -137 -131 0 -4 24 17 53 48 28 30 75
68 102 84 28 16 45 29 39 29 -5 0 -31 -13 -57 -30z"/>
<path d="M1600 2940 c8 -5 20 -10 25 -10 6 0 3 5 -5 10 -8 5 -19 10 -25 10 -5
0 -3 -5 5 -10z"/>
<path d="M1691 2873 c35 -52 63 -85 36 -41 -26 41 -21 45 16 12 l32 -29 -30
33 c-16 19 -42 43 -58 54 l-27 20 31 -49z"/>
<path d="M1540 2810 c8 -5 20 -10 25 -10 6 0 3 5 -5 10 -8 5 -19 10 -25 10 -5
0 -3 -5 5 -10z"/>
<path d="M1790 2799 c0 -3 13 -30 30 -60 33 -59 42 -60 10 -1 -23 44 -40 69
-40 61z"/>
<path d="M1158 2783 c23 -2 61 -2 85 0 23 2 4 4 -43 4 -47 0 -66 -2 -42 -4z"/>
<path d="M1066 2771 c-3 -4 6 -6 19 -3 14 2 25 6 25 8 0 8 -39 4 -44 -5z"/>
<path d="M1313 2773 c9 -2 23 -2 30 0 6 3 -1 5 -18 5 -16 0 -22 -2 -12 -5z"/>
<path d="M1396 2761 c12 -11 84 -34 89 -29 3 2 -18 12 -47 21 -28 9 -47 12
-42 8z"/>
<path d="M1695 2715 c47 -63 53 -69 29 -27 -10 18 -30 43 -43 55 -14 13 -8 1
14 -28z"/>
<path d="M993 2714 c-9 -21 -17 -68 -19 -104 -1 -36 -5 -90 -8 -120 -3 -33 -2
-45 2 -30 6 19 10 8 15 -50 10 -107 28 -200 37 -200 5 0 4 15 -1 33 -5 17 -11
70 -14 117 -3 47 -10 128 -16 180 -10 87 -10 99 10 149 24 63 20 83 -6 25z"/>
<path d="M1545 2698 c22 -11 59 -36 83 -55 23 -19 42 -30 42 -25 0 16 -134
103 -157 102 -4 -1 10 -10 32 -22z"/>
<path d="M1852 2640 c0 -19 2 -27 5 -17 2 9 2 25 0 35 -3 9 -5 1 -5 -18z"/>
<path d="M1751 2630 c14 -31 19 -36 19 -24 0 6 -7 19 -16 30 -14 18 -14 18 -3
-6z"/>
<path d="M1801 2624 c0 -11 3 -14 6 -6 3 7 2 16 -1 19 -3 4 -6 -2 -5 -13z"/>
<path d="M1690 2593 c1 -4 19 -28 42 -53 l41 -45 -34 48 c-34 49 -49 65 -49
50z"/>
<path d="M1796 2554 c-4 -14 -5 -29 -2 -31 3 -3 8 7 12 21 3 15 4 29 1 32 -2
3 -8 -7 -11 -22z"/>
<path d="M1863 2520 c0 -25 2 -35 4 -22 2 12 2 32 0 45 -2 12 -4 2 -4 -23z"/>
<path d="M1734 2433 c-15 -27 -34 -59 -42 -73 l-14 -25 18 22 c22 27 77 123
71 123 -3 0 -18 -21 -33 -47z"/>
<path d="M1871 2434 c0 -11 3 -14 6 -6 3 7 2 16 -1 19 -3 4 -6 -2 -5 -13z"/>
<path d="M952 2400 c0 -19 2 -27 5 -17 2 9 2 25 0 35 -3 9 -5 1 -5 -18z"/>
<path d="M942 2335 c0 -16 2 -22 5 -12 2 9 2 23 0 30 -3 6 -5 -1 -5 -18z"/>
<path d="M1900 2356 c0 -11 30 -66 36 -66 2 0 -3 15 -12 33 -19 36 -24 44 -24
33z"/>
<path d="M1646 2290 c-14 -22 -26 -43 -26 -47 0 -4 6 1 13 12 33 48 49 75 44
75 -2 0 -16 -18 -31 -40z"/>
<path d="M932 2270 c0 -14 2 -19 5 -12 2 6 2 18 0 25 -3 6 -5 1 -5 -13z"/>
<path d="M1578 2189 c-15 -21 -26 -39 -23 -39 7 0 58 70 54 74 -2 2 -16 -14
-31 -35z"/>
<path d="M1981 2205 c0 -5 6 -21 14 -35 8 -14 14 -20 14 -15 0 6 -6 21 -14 35
-8 14 -14 21 -14 15z"/>
<path d="M911 2174 c0 -11 3 -14 6 -6 3 7 2 16 -1 19 -3 4 -6 -2 -5 -13z"/>
<path d="M1040 2152 c0 -23 31 -73 72 -118 22 -24 37 -47 34 -53 -3 -5 2 -7
13 -4 23 6 38 -14 22 -30 -6 -6 -11 -16 -11 -21 0 -6 7 -1 15 11 13 19 20 21
41 13 44 -17 126 -12 162 10 17 11 32 16 32 11 0 -14 -50 -51 -69 -51 -12 0
-13 -2 -3 -9 10 -6 0 -20 -39 -55 -28 -26 -50 -49 -47 -51 8 -8 170 166 223
240 52 71 83 122 43 70 -48 -63 -121 -134 -153 -149 -106 -50 -246 20 -315
158 -11 22 -20 35 -20 28z"/>
<path d="M901 2134 c0 -11 3 -14 6 -6 3 7 2 16 -1 19 -3 4 -6 -2 -5 -13z"/>
<path d="M2031 2095 c0 -5 31 -71 69 -145 38 -74 69 -130 69 -125 0 6 -31 71
-69 145 -38 74 -69 131 -69 125z"/>
<path d="M876 2054 c-4 -14 -5 -28 -3 -31 3 -2 8 8 11 23 4 14 5 28 3 31 -3 2
-8 -8 -11 -23z"/>
<path d="M861 1994 c0 -11 3 -14 6 -6 3 7 2 16 -1 19 -3 4 -6 -2 -5 -13z"/>
<path d="M851 1947 c0 -16 3 -37 9 -47 8 -15 3 -22 -30 -44 -58 -38 -49 -40
14 -3 29 18 47 33 40 35 -8 2 -16 13 -19 25 -2 12 -6 31 -8 42 -3 14 -5 12 -6
-8z"/>
<path d="M1078 1953 c7 -3 16 -2 19 1 4 3 -2 6 -13 5 -11 0 -14 -3 -6 -6z"/>
<path d="M940 1910 c-8 -5 -10 -10 -5 -10 6 0 17 5 25 10 8 5 11 10 5 10 -5 0
-17 -5 -25 -10z"/>
<path d="M1285 1900 c-13 -5 -14 -9 -5 -9 8 0 24 4 35 9 13 5 14 9 5 9 -8 0
-24 -4 -35 -9z"/>
<path d="M1170 1895 c0 -25 17 -36 41 -25 22 10 23 10 1 6 -13 -2 -26 2 -32
12 -5 10 -9 13 -10 7z"/>
<path d="M1050 1830 c0 -5 5 -10 11 -10 5 0 7 5 4 10 -3 6 -8 10 -11 10 -2 0
-4 -4 -4 -10z"/>
<path d="M1088 1833 c7 -3 16 -2 19 1 4 3 -2 6 -13 5 -11 0 -14 -3 -6 -6z"/>
<path d="M2170 1797 c0 -9 4 -17 8 -17 14 0 51 -74 66 -131 8 -30 15 -44 15
-32 1 13 -7 44 -17 71 -23 59 -72 134 -72 109z"/>
<path d="M730 1753 c-17 -26 -30 -52 -30 -57 0 -6 12 9 26 34 14 25 30 51 36
57 6 7 8 13 4 13 -4 0 -20 -21 -36 -47z"/>
<path d="M1230 1785 c-7 -8 -21 -15 -32 -15 -10 0 -17 -4 -13 -9 3 -5 -7 -19
-21 -30 -15 -12 -22 -21 -15 -21 6 0 30 17 53 37 24 21 45 39 47 40 2 2 2 5
-1 8 -3 3 -11 -1 -18 -10z"/>
<path d="M1060 1768 c16 -20 12 -28 -17 -29 -26 -2 -26 -2 -4 -6 33 -7 50 13
28 32 -9 8 -12 10 -7 3z"/>
<path d="M1108 1743 c7 -3 16 -2 19 1 4 3 -2 6 -13 5 -11 0 -14 -3 -6 -6z"/>
<path d="M2050 1626 l-104 -111 98 95 c79 77 131 135 114 129 -2 -1 -50 -51
-108 -113z"/>
<path d="M1035 1624 c-49 -41 -135 -105 -190 -141 -106 -70 -136 -94 -95 -73
60 30 390 273 390 286 0 12 -24 -5 -105 -72z"/>
<path d="M682 1630 c0 -14 2 -19 5 -12 2 6 2 18 0 25 -3 6 -5 1 -5 -13z"/>
<path d="M2262 1560 c0 -14 2 -19 5 -12 2 6 2 18 0 25 -3 6 -5 1 -5 -13z"/>
<path d="M683 1535 c0 -22 2 -30 4 -17 2 12 2 30 0 40 -3 9 -5 -1 -4 -23z"/>
<path d="M1479 1553 c-13 -16 -12 -17 4 -4 9 7 17 15 17 17 0 8 -8 3 -21 -13z"/>
<path d="M1424 1508 l-19 -23 23 19 c21 18 27 26 19 26 -2 0 -12 -10 -23 -22z"/>
<path d="M1885 1468 l-50 -53 53 50 c28 27 52 51 52 52 0 8 -9 -1 -55 -49z"/>
<path d="M692 1455 c0 -16 2 -22 5 -12 2 9 2 23 0 30 -3 6 -5 -1 -5 -18z"/>
<path d="M1364 1458 l-19 -23 23 19 c21 18 27 26 19 26 -2 0 -12 -10 -23 -22z"/>
<path d="M2254 1380 c0 -52 1 -74 3 -47 2 26 2 68 0 95 -2 26 -3 4 -3 -48z"/>
<path d="M1304 1408 l-19 -23 23 19 c21 18 27 26 19 26 -2 0 -12 -10 -23 -22z"/>
<path d="M700 1408 c0 -6 -8 -20 -17 -31 -18 -20 -18 -20 9 -3 16 10 25 23 21
32 -6 17 -13 18 -13 2z"/>
<path d="M1775 1368 l-50 -53 53 50 c48 46 57 55 49 55 -1 0 -25 -24 -52 -52z"/>
<path d="M1249 1363 c-13 -16 -12 -17 4 -4 9 7 17 15 17 17 0 8 -8 3 -21 -13z"/>
<path d="M662 1330 c-1 -14 5 -34 13 -44 8 -11 15 -15 15 -10 0 6 -4 14 -9 20
-5 5 -11 20 -14 34 l-4 25 -1 -25z"/>
<path d="M1199 1323 c-13 -16 -12 -17 4 -4 9 7 17 15 17 17 0 8 -8 3 -21 -13z"/>
<path d="M1665 1268 l-50 -53 53 50 c48 46 57 55 49 55 -1 0 -25 -24 -52 -52z"/>
<path d="M1149 1283 c-13 -16 -12 -17 4 -4 9 7 17 15 17 17 0 8 -8 3 -21 -13z"/>
<path d="M676 1225 c-4 -12 -12 -14 -28 -9 -27 8 -22 1 12 -16 14 -7 22 -9 18
-5 -4 5 -3 14 4 22 6 7 9 16 6 19 -3 3 -8 -2 -12 -11z"/>
<path d="M2243 1150 c0 -47 2 -66 4 -42 2 23 2 61 0 85 -2 23 -4 4 -4 -43z"/>
<path d="M1555 1168 l-50 -53 53 50 c48 46 57 55 49 55 -1 0 -25 -24 -52 -52z"/>
<path d="M868 1143 c12 -2 30 -2 40 0 9 3 -1 5 -23 4 -22 0 -30 -2 -17 -4z"/>
<path d="M592 1110 c-1 -14 5 -34 13 -44 8 -11 15 -15 15 -10 0 6 -4 14 -9 20
-5 5 -11 20 -14 34 l-4 25 -1 -25z"/>
<path d="M1450 1075 c-24 -25 -42 -45 -39 -45 3 0 25 20 49 45 24 25 42 45 39
45 -3 0 -25 -20 -49 -45z"/>
<path d="M1360 995 c-38 -36 -119 -45 -437 -45 l-282 0 -4 33 -4 32 -1 -32
c-2 -30 -5 -33 -32 -33 l-30 0 0 -115 0 -115 860 0 860 0 0 115 0 115 -24 0
c-21 0 -25 5 -29 38 l-4 37 -1 -37 -2 -38 -467 1 c-258 1 -458 4 -447 6 12 2
34 17 49 34 35 35 30 39 -5 4z m-380 -166 c0 -22 -4 -38 -8 -35 -5 3 -7 19 -4
37 4 24 2 30 -8 24 -9 -5 -11 -4 -6 3 14 24 26 11 26 -29z m474 32 c3 -4 -6
-6 -19 -3 -19 3 -27 -1 -34 -19 -6 -14 -10 -18 -10 -8 -2 30 48 54 63 30z
m494 -28 c-3 -35 -6 -38 -33 -38 -27 0 -30 3 -33 38 -3 37 -3 37 33 37 36 0
36 0 33 -37z m-1015 2 c-3 -9 -8 -14 -10 -11 -3 3 -2 9 2 15 9 16 15 13 8 -4z"/>
<path d="M1890 830 c0 -25 4 -30 25 -30 21 0 25 5 25 30 0 25 -4 30 -25 30
-21 0 -25 -5 -25 -30z"/>
<path d="M4510 4107 c19 -20 37 -37 39 -37 10 0 -29 45 -50 59 -18 11 -15 5
11 -22z"/>
<path d="M2955 4040 c-8 -26 6 -43 31 -38 13 2 19 12 19 28 0 34 -40 41 -50
10z"/>
<path d="M3120 4045 c-7 -8 -10 -22 -6 -30 5 -13 63 -15 483 -13 l478 3 0 25
0 25 -471 3 c-409 2 -473 0 -484 -13z"/>
<path d="M2750 3615 l0 -25 465 0 465 0 0 25 0 25 -465 0 -465 0 0 -25z"/>
<path d="M5074 2968 l-19 -23 23 19 c21 18 27 26 19 26 -2 0 -12 -10 -23 -22z"/>
<path d="M5591 2864 c0 -11 3 -14 6 -6 3 7 2 16 -1 19 -3 4 -6 -2 -5 -13z"/>
<path d="M5155 2834 c-12 -54 -33 -119 -70 -212 -20 -52 -35 -101 -33 -110 2
-10 12 10 22 43 10 33 31 92 47 130 16 39 33 92 38 120 10 53 6 77 -4 29z"/>
<path d="M5272 2788 c-2 -47 -87 -289 -106 -303 -11 -9 -6 -11 22 -11 20 -1
29 1 20 3 -10 3 -18 7 -18 10 0 3 21 63 46 133 33 92 44 138 41 166 l-4 39 -1
-37z"/>
<path d="M5592 2744 c-2 -40 -7 -55 -28 -75 -14 -13 -39 -51 -56 -84 -16 -33
-37 -69 -46 -80 -17 -19 -16 -20 3 -3 11 9 31 38 45 65 14 26 33 58 44 70 l19
22 76 -65 76 -66 -74 70 c-62 59 -73 73 -62 86 7 9 11 34 8 63 l-3 48 -2 -51z"/>
<path d="M5417 2712 c-10 -15 -36 -65 -58 -112 -22 -47 -48 -94 -57 -104 -16
-18 -16 -18 6 -5 13 8 39 48 59 89 19 41 44 92 55 113 24 45 20 58 -5 19z"/>
<path d="M5070 2501 c0 -13 39 -35 48 -27 3 3 0 6 -6 6 -6 0 -18 7 -26 16 -9
8 -16 11 -16 5z"/>
<path d="M5042 2450 c0 -14 2 -19 5 -12 2 6 2 18 0 25 -3 6 -5 1 -5 -13z"/>
<path d="M4913 2385 c0 -38 2 -53 4 -32 2 20 2 52 0 70 -2 17 -4 1 -4 -38z"/>
<path d="M5030 2405 c0 -8 2 -15 4 -15 2 0 6 7 10 15 3 8 1 15 -4 15 -6 0 -10
-7 -10 -15z"/>
<path d="M4932 2294 c10 -10 20 -16 22 -13 3 3 -5 11 -17 18 -21 13 -21 12 -5
-5z"/>
<path d="M4980 2290 c-9 -6 -10 -10 -3 -10 6 0 15 5 18 10 8 12 4 12 -15 0z"/>
<path d="M4845 2200 c10 -11 20 -20 23 -20 3 0 -3 9 -13 20 -10 11 -20 20 -23
20 -3 0 3 -9 13 -20z"/>
<path d="M4810 2175 c13 -14 26 -25 28 -25 3 0 -5 11 -18 25 -13 14 -26 25
-28 25 -3 0 5 -11 18 -25z"/>
<path d="M4807 1673 c-4 -3 -7 -11 -7 -17 0 -6 4 -5 9 2 7 11 15 11 44 -2 42
-17 55 -49 38 -97 -6 -18 -9 -34 -7 -36 9 -9 27 70 22 92 -9 34 -81 77 -99 58z"/>
<path d="M4769 1589 c-14 -31 -48 -74 -84 -108 -33 -31 -51 -49 -40 -41 53 39
109 100 132 143 13 27 23 51 20 53 -2 2 -14 -19 -28 -47z"/>
<path d="M4835 1432 c-45 -85 -79 -110 -161 -120 -25 -2 -41 -9 -38 -14 4 -6
-2 -8 -14 -4 -12 4 -33 1 -49 -8 l-28 -15 25 0 c14 -1 47 6 74 14 27 8 88 16
135 17 l86 2 -69 5 -69 6 34 12 c29 11 42 26 78 94 24 44 41 82 40 84 -2 2
-22 -31 -44 -73z"/>
<path d="M5215 1450 c-44 -21 -77 -39 -74 -39 4 -1 44 17 90 38 46 22 80 40
74 40 -5 0 -46 -18 -90 -39z"/>
<path d="M5090 1395 c-14 -8 -20 -14 -15 -14 6 0 21 6 35 14 14 8 21 14 15 14
-5 0 -21 -6 -35 -14z"/>
<path d="M5369 1383 l-24 -28 28 24 c15 14 27 26 27 28 0 8 -8 1 -31 -24z"/>
<path d="M5005 1359 c-22 -10 -29 -16 -15 -13 28 7 80 33 65 33 -5 0 -28 -9
-50 -20z"/>
<path d="M4426 1286 c-38 -29 -73 -61 -79 -72 -7 -12 -2 -10 14 6 13 14 50 45
82 69 50 38 64 51 55 51 -2 0 -34 -24 -72 -54z"/>
<path d="M5350 1326 c0 -2 8 -10 18 -17 15 -13 16 -12 3 4 -13 16 -21 21 -21
13z"/>
<path d="M4878 1313 c7 -3 16 -2 19 1 4 3 -2 6 -13 5 -11 0 -14 -3 -6 -6z"/>
<path d="M5224 1279 c-5 -8 -3 -9 6 -4 9 6 11 4 6 -4 -5 -7 -15 -10 -24 -6 -9
3 -13 3 -9 -1 9 -9 -30 -37 -42 -29 -5 3 -13 0 -17 -6 -5 -8 -2 -10 7 -5 8 4
5 0 -6 -8 -11 -9 -25 -14 -32 -12 -7 3 -15 0 -19 -6 -5 -7 -2 -8 6 -3 9 6 11
4 6 -4 -5 -7 -15 -10 -23 -7 -9 4 -11 2 -7 -6 5 -8 2 -9 -9 -5 -9 3 -19 3 -21
-2 -3 -4 0 -8 7 -8 7 0 23 -3 36 -7 18 -6 22 -5 16 4 -6 10 0 12 24 7 23 -5
30 -3 25 5 -5 7 0 9 14 6 14 -4 20 -2 15 5 -4 6 2 8 15 5 13 -4 20 -2 16 4 -3
5 2 8 12 6 11 -2 19 3 19 12 1 8 5 14 10 13 6 -1 10 11 10 27 0 16 -2 26 -4
24 -2 -2 -10 1 -17 7 -8 7 -14 6 -20 -2z"/>
<path d="M4305 1140 c-9 -16 -13 -30 -11 -30 3 0 12 14 21 30 9 17 13 30 11
30 -3 0 -12 -13 -21 -30z"/>
<path d="M5003 1145 c-10 -8 -13 -15 -6 -15 6 0 14 4 18 10 3 5 12 7 20 3 8
-3 15 -3 15 0 0 13 -30 14 -47 2z"/>
<path d="M4255 1059 c-16 -22 -45 -53 -66 -70 l-37 -29 -711 0 -711 0 0 -115
0 -115 516 0 c465 0 515 -2 504 -15 -14 -17 121 61 310 178 111 69 195 140
219 185 19 35 6 25 -24 -19z m-1095 -219 c0 -22 -3 -40 -8 -40 -6 0 -44 23
-62 37 -7 6 43 43 58 43 7 0 12 -15 12 -40z m490 21 c15 -28 -21 -71 -47 -55
-20 12 -28 37 -19 60 8 21 53 17 66 -5z"/>
<path d="M3121 856 l-24 -13 22 -13 c27 -14 34 -9 29 18 -3 19 -5 19 -27 8z"/>
<path d="M3597 864 c-12 -12 -8 -42 6 -47 21 -8 39 8 35 29 -3 19 -29 30 -41
18z"/>
<path d="M4971 730 c-13 -11 -19 -20 -13 -20 6 0 17 7 25 15 8 8 18 11 22 7 5
-4 5 -1 1 6 -9 15 -6 15 -35 -8z"/>
<path d="M5029 673 c-13 -16 -12 -17 4 -4 16 13 21 21 13 21 -2 0 -10 -8 -17
-17z"/>
<path d="M4369 503 c-12 -16 -12 -16 1 -6 8 6 29 13 45 16 l30 4 -31 2 c-20 0
-37 -6 -45 -16z"/>
<path d="M2674 491 c8 -12 66 -44 71 -39 2 2 -15 14 -37 27 -22 12 -37 18 -34
12z"/>
<path d="M5451 2214 c-37 -47 -25 -106 27 -133 74 -39 140 72 81 135 -31 34
-81 32 -108 -2z m99 -32 c0 -5 -13 -20 -28 -35 -28 -27 -29 -27 -46 -8 -10 11
-13 21 -7 25 5 4 13 1 16 -5 5 -7 12 -3 22 10 14 21 43 29 43 13z"/>
<path d="M5455 1975 c-50 -49 -17 -145 50 -145 29 0 74 40 76 67 3 41 -3 59
-27 81 -33 29 -69 28 -99 -3z m82 -60 c1 -31 -1 -32 -31 -30 -41 4 -40 3 -27
19 8 10 9 16 1 21 -17 10 -3 22 28 22 25 0 28 -4 29 -32z"/>
<path d="M5489 1927 c7 -7 7 -14 0 -23 -7 -9 -4 -12 14 -10 34 2 32 40 -1 43
-17 1 -21 -2 -13 -10z"/>
</g>
</svg>
