<?xml version="1.0" standalone="no"?>
<!DOCTYPE svg PUBLIC "-//W3C//DTD SVG 20010904//EN"
 "http://www.w3.org/TR/2001/REC-SVG-20010904/DTD/svg10.dtd">
<svg version="1.0" xmlns="http://www.w3.org/2000/svg"
 width="162.000000pt" height="162.000000pt" viewBox="0 0 162.000000 162.000000"
 preserveAspectRatio="xMidYMid meet">

<g transform="translate(0.000000,162.000000) scale(0.100000,-0.100000)"
fill="#000000" stroke="none">
<path d="M793 1357 c7 -5 2 -7 -14 -3 -19 4 -31 0 -45 -16 -11 -12 -13 -18 -4
-13 17 10 54 17 93 18 17 0 24 3 17 7 -9 6 -9 9 0 12 7 2 -3 4 -23 4 -24 0
-32 -3 -24 -9z"/>
<path d="M864 1347 c3 -21 17 -38 27 -32 15 10 11 23 -10 35 -14 7 -19 6 -17
-3z"/>
<path d="M735 1310 c-4 -6 -11 -8 -16 -5 -5 3 -6 -1 -3 -10 4 -9 7 -15 8 -13
1 2 8 11 15 21 7 9 11 17 8 17 -3 0 -9 -5 -12 -10z"/>
<path d="M704 1246 c1 -35 8 -52 29 -73 20 -20 30 -24 38 -16 8 8 6 14 -9 22
-10 6 -23 7 -27 3 -5 -4 -5 1 -2 11 4 11 1 20 -9 24 -10 4 -14 13 -10 27 3 12
1 27 -3 35 -6 8 -8 -4 -7 -33z m61 -84 c-3 -3 -11 0 -18 7 -9 10 -8 11 6 5 10
-3 15 -9 12 -12z"/>
<path d="M888 1219 c8 -10 11 -23 6 -30 -4 -7 -3 -10 2 -6 5 3 9 -17 9 -43 0
-26 -3 -46 -6 -44 -3 2 -17 -8 -29 -21 -13 -14 -19 -25 -14 -25 5 0 2 -5 -6
-10 -8 -5 -10 -10 -4 -10 7 0 20 8 31 18 10 9 14 14 9 10 -20 -16 -28 -7 -11
12 9 10 22 18 27 17 6 -1 11 22 13 52 2 43 -2 58 -19 75 -12 12 -15 14 -8 5z"/>
<path d="M725 1070 c-3 -5 5 -16 17 -24 17 -11 32 -12 58 -6 l35 9 -35 -3
c-43 -4 -80 11 -59 25 9 6 10 9 2 9 -6 0 -14 -4 -18 -10z"/>
<path d="M1280 870 c0 -20 -5 -30 -15 -30 -8 0 -15 -4 -15 -10 0 -5 7 -10 15
-10 12 0 15 -15 15 -74 0 -80 13 -103 50 -91 26 8 26 25 0 25 -18 0 -20 7 -20
70 0 63 2 70 20 70 11 0 20 5 20 10 0 6 -9 10 -20 10 -16 0 -20 7 -20 30 0 20
-5 30 -15 30 -10 0 -15 -10 -15 -30z"/>
<path d="M132 834 c-31 -21 -29 -59 6 -81 72 -45 76 -73 11 -73 -45 0 -52 -15
-12 -24 41 -11 83 11 83 43 0 34 -8 45 -47 65 -47 24 -45 56 2 56 36 0 47 13
19 24 -24 9 -38 7 -62 -10z"/>
<path d="M408 834 c-16 -8 -28 -10 -28 -4 0 5 -7 10 -15 10 -12 0 -15 -17 -15
-90 0 -73 3 -90 15 -90 12 0 15 14 15 63 0 49 4 68 18 80 45 41 72 10 72 -82
0 -42 4 -61 13 -61 9 0 11 17 9 61 -4 64 13 99 48 99 30 0 40 -23 40 -92 0
-54 3 -68 15 -68 12 0 15 14 15 64 0 109 -27 143 -90 111 -28 -14 -32 -14 -46
0 -19 19 -31 18 -66 -1z"/>
<path d="M708 834 c-16 -8 -28 -10 -28 -4 0 5 -4 10 -10 10 -6 0 -10 -48 -10
-125 0 -93 3 -125 13 -125 8 0 11 14 10 41 -1 34 2 39 15 34 39 -16 50 -15 75
7 38 33 42 123 7 158 -24 24 -36 24 -72 4z m61 -45 c17 -49 -3 -109 -37 -109
-51 0 -73 94 -30 124 34 24 55 20 67 -15z"/>
<path d="M902 834 c-12 -8 -22 -10 -22 -5 0 6 -7 11 -15 11 -12 0 -15 -17 -15
-90 0 -73 3 -90 15 -90 12 0 15 14 15 63 0 64 17 97 48 97 7 0 12 7 12 15 0
19 -10 19 -38 -1z"/>
<path d="M1120 833 c-17 -12 -25 -13 -28 -5 -2 7 -8 12 -13 12 -5 0 -9 -40 -9
-90 0 -73 3 -90 15 -90 12 0 15 14 15 70 0 65 2 71 24 82 46 20 56 6 56 -77 0
-60 3 -75 15 -75 24 0 21 151 -3 173 -23 21 -41 21 -72 0z"/>
<path d="M1410 832 c-32 -26 -21 -62 27 -93 51 -32 50 -54 -1 -55 -48 0 -59
-19 -16 -27 56 -12 101 23 84 66 -3 8 -23 27 -45 42 -48 31 -46 49 4 53 41 4
49 17 15 26 -35 9 -44 7 -68 -12z"/>
<path d="M270 750 c0 -73 3 -90 15 -90 12 0 15 17 15 90 0 73 -3 90 -15 90
-12 0 -15 -17 -15 -90z"/>
<path d="M980 750 c0 -73 3 -90 15 -90 12 0 15 17 15 90 0 73 -3 90 -15 90
-12 0 -15 -17 -15 -90z"/>
<path d="M363 465 c0 -22 2 -30 4 -17 2 12 2 30 0 40 -3 9 -5 -1 -4 -23z"/>
<path d="M1191 464 c0 -11 3 -14 6 -6 3 7 2 16 -1 19 -3 4 -6 -2 -5 -13z"/>
<path d="M1322 455 c0 -16 2 -22 5 -12 2 9 2 23 0 30 -3 6 -5 -1 -5 -18z"/>
</g>
</svg>
