<?xml version="1.0" standalone="no"?>
<!DOCTYPE svg PUBLIC "-//W3C//DTD SVG 20010904//EN"
 "http://www.w3.org/TR/2001/REC-SVG-20010904/DTD/svg10.dtd">
<svg version="1.0" xmlns="http://www.w3.org/2000/svg"
 width="643.000000pt" height="442.000000pt" viewBox="0 0 643.000000 442.000000"
 preserveAspectRatio="xMidYMid meet">

<g transform="translate(0.000000,442.000000) scale(0.100000,-0.100000)"
fill="#000000" stroke="none">
<path d="M0 2210 l0 -2210 3215 0 3215 0 0 2210 0 2210 -3215 0 -3215 0 0
-2210z m3915 1900 c171 -6 324 -13 341 -16 l31 -4 7 -102 c4 -64 11 -105 19
-109 41 -24 438 -312 463 -336 32 -33 140 -221 137 -241 0 -7 1 -11 4 -8 3 3
27 -31 53 -75 51 -84 125 -175 202 -250 60 -57 62 -81 8 -103 -58 -23 -198
-18 -183 7 3 6 1 7 -5 3 -30 -18 -168 100 -282 243 -36 45 -71 81 -78 81 -7 0
-10 -5 -7 -10 8 -13 -46 -384 -56 -388 -5 -2 -6 -9 -3 -15 2 -7 -6 -84 -19
-172 l-23 -160 96 -1 c118 -2 171 -16 217 -58 35 -32 36 -34 44 -137 27 -344
36 -998 19 -1471 -16 -444 -22 -503 -51 -534 -40 -43 -73 -54 -216 -70 -104
-12 -192 -15 -358 -11 -394 10 -456 32 -469 169 -35 375 -35 1584 0 1958 5 57
10 69 40 97 42 40 117 58 234 57 51 -1 77 2 65 7 -13 5 0 8 42 8 l61 1 7 40
c7 43 -3 160 -14 160 -3 0 -17 -23 -29 -51 -57 -123 -190 -93 -259 58 -14 29
-30 53 -36 54 -73 3 -99 8 -121 23 -34 22 -68 76 -62 99 2 9 0 17 -5 17 -5 0
-9 6 -9 13 0 7 -30 26 -66 41 -53 24 -69 36 -80 62 -16 37 -18 90 -5 98 4 3 6
17 3 31 -2 14 0 25 5 25 5 0 6 52 3 118 -2 64 -4 171 -4 237 0 113 3 127 41
242 23 68 38 121 34 119 -10 -6 -82 182 -84 219 -1 18 -5 31 -9 28 -5 -2 -8 3
-8 11 0 11 8 14 28 11 15 -2 167 -9 337 -15z m-783 -119 c-10 -6 -7 -10 12
-15 14 -3 42 -21 62 -39 27 -23 33 -26 23 -10 -7 12 -28 30 -46 40 -18 9 -30
19 -28 21 2 2 19 -5 38 -17 36 -22 52 -45 48 -70 -1 -7 2 -10 8 -6 6 3 11 3
11 -2 3 -358 4 -3500 2 -3493 -2 6 -12 -6 -23 -27 -22 -43 -18 -58 5 -16 8 15
15 23 16 16 0 -15 -47 -71 -71 -83 -14 -8 -1265 -15 -1766 -10 -23 0 -82 60
-76 77 4 11 2 14 -5 9 -9 -5 -12 427 -12 1738 0 960 -3 1752 -6 1760 -7 17 13
59 25 52 4 -3 21 9 37 26 27 29 21 30 -16 4 -9 -6 -6 -1 7 11 14 14 30 20 40
16 11 -4 14 -3 9 6 -6 9 0 10 21 6 21 -5 24 -4 13 4 -11 8 231 11 835 11 472
0 844 -4 837 -9z m-1815 -2724 c-1 -474 -2 -86 -2 863 0 949 1 1337 2 862 2
-474 2 -1250 0 -1725z m1386 -1004 c-221 -2 -585 -2 -810 0 -224 1 -43 2 402
2 446 0 629 -1 408 -2z"/>
<path d="M4041 2394 c0 -11 3 -14 6 -6 3 7 2 16 -1 19 -3 4 -6 -2 -5 -13z"/>
<path d="M4032 2300 c0 -14 2 -19 5 -12 2 6 2 18 0 25 -3 6 -5 1 -5 -13z"/>
<path d="M4652 2245 c0 -16 2 -22 5 -12 2 9 2 23 0 30 -3 6 -5 -1 -5 -18z"/>
<path d="M4022 2075 c0 -16 2 -22 5 -12 2 9 2 23 0 30 -3 6 -5 -1 -5 -18z"/>
<path d="M4091 2044 c0 -11 3 -14 6 -6 3 7 2 16 -1 19 -3 4 -6 -2 -5 -13z"/>
<path d="M4040 1971 c0 -6 4 -13 10 -16 6 -3 7 1 4 9 -7 18 -14 21 -14 7z"/>
<path d="M4524 1928 l-29 -33 33 29 c17 17 32 31 32 33 0 8 -8 1 -36 -29z"/>
<path d="M4584 1898 l-29 -33 33 29 c17 17 32 31 32 33 0 8 -8 1 -36 -29z"/>
<path d="M3996 1851 c-4 -5 3 -7 14 -4 23 6 26 13 6 13 -8 0 -17 -4 -20 -9z"/>
<path d="M4164 1846 c11 -9 24 -16 30 -16 12 0 7 5 -24 19 -24 11 -24 11 -6
-3z"/>
<path d="M4596 1851 c-4 -5 3 -7 14 -4 23 6 26 13 6 13 -8 0 -17 -4 -20 -9z"/>
<path d="M3962 1785 c0 -16 2 -22 5 -12 2 9 2 23 0 30 -3 6 -5 -1 -5 -18z"/>
<path d="M4298 1803 c7 -3 16 -2 19 1 4 3 -2 6 -13 5 -11 0 -14 -3 -6 -6z"/>
<path d="M4368 1803 c7 -3 16 -2 19 1 4 3 -2 6 -13 5 -11 0 -14 -3 -6 -6z"/>
<path d="M4510 1800 c-9 -6 -10 -10 -3 -10 6 0 15 5 18 10 8 12 4 12 -15 0z"/>
<path d="M4228 1773 c7 -3 16 -2 19 1 4 3 -2 6 -13 5 -11 0 -14 -3 -6 -6z"/>
<path d="M4723 1620 c0 -30 2 -43 4 -27 2 15 2 39 0 55 -2 15 -4 2 -4 -28z"/>
<path d="M3954 1305 c0 -99 2 -138 3 -87 2 51 2 132 0 180 -1 48 -3 6 -3 -93z"/>
<path d="M4723 990 c0 -30 2 -43 4 -27 2 15 2 39 0 55 -2 15 -4 2 -4 -28z"/>
<path d="M3963 805 c0 -22 2 -30 4 -17 2 12 2 30 0 40 -3 9 -5 -1 -4 -23z"/>
<path d="M4712 705 c0 -16 2 -22 5 -12 2 9 2 23 0 30 -3 6 -5 -1 -5 -18z"/>
<path d="M3972 590 c0 -19 2 -27 5 -17 2 9 2 25 0 35 -3 9 -5 1 -5 -18z"/>
<path d="M4702 500 c0 -19 2 -27 5 -17 2 9 2 25 0 35 -3 9 -5 1 -5 -18z"/>
<path d="M3980 446 c0 -2 8 -10 18 -17 15 -13 16 -12 3 4 -13 16 -21 21 -21
13z"/>
<path d="M4388 413 c23 -2 61 -2 85 0 23 2 4 4 -43 4 -47 0 -66 -2 -42 -4z"/>
<path d="M1336 3895 c-9 -26 -7 -32 5 -12 6 10 9 21 6 23 -2 3 -7 -2 -11 -11z"/>
<path d="M1594 3855 c-9 -22 9 -37 37 -33 16 2 24 10 24 23 0 26 -52 35 -61
10z"/>
<path d="M1764 3855 c-4 -8 -1 -22 6 -30 11 -13 80 -15 495 -15 266 0 490 3
499 6 9 3 16 17 16 30 l0 24 -505 0 c-442 0 -506 -2 -511 -15z"/>
<path d="M2218 2813 c17 -2 47 -2 65 0 17 2 3 4 -33 4 -36 0 -50 -2 -32 -4z"/>
<path d="M2158 2803 c7 -3 16 -2 19 1 4 3 -2 6 -13 5 -11 0 -14 -3 -6 -6z"/>
<path d="M2343 2803 c9 -2 23 -2 30 0 6 3 -1 5 -18 5 -16 0 -22 -2 -12 -5z"/>
<path d="M2110 2790 c-8 -5 -10 -10 -5 -10 6 0 17 5 25 10 8 5 11 10 5 10 -5
0 -17 -5 -25 -10z"/>
<path d="M2430 2785 c24 -8 46 -13 48 -11 5 5 -59 26 -77 25 -9 0 4 -7 29 -14z"/>
<path d="M2040 2754 c-34 -23 -110 -95 -121 -116 -5 -10 16 8 48 40 32 32 69
66 83 75 14 9 23 16 20 16 -3 1 -17 -6 -30 -15z"/>
<path d="M2490 2766 c0 -2 7 -7 16 -10 8 -3 12 -2 9 4 -6 10 -25 14 -25 6z"/>
<path d="M2544 2731 c11 -11 23 -21 28 -21 14 0 -1 19 -25 31 -22 12 -22 12
-3 -10z"/>
<path d="M2590 2707 c0 -2 15 -16 33 -33 l32 -29 -29 33 c-28 30 -36 37 -36
29z"/>
<path d="M2602 2643 c18 -34 34 -60 36 -58 5 4 -33 76 -52 100 -9 11 -2 -8 16
-42z"/>
<path d="M2318 2673 c7 -3 16 -2 19 1 4 3 -2 6 -13 5 -11 0 -14 -3 -6 -6z"/>
<path d="M2360 2660 c8 -5 20 -10 25 -10 6 0 3 5 -5 10 -8 5 -19 10 -25 10 -5
0 -3 -5 5 -10z"/>
<path d="M2410 2640 c8 -5 20 -10 25 -10 6 0 3 5 -5 10 -8 5 -19 10 -25 10 -5
0 -3 -5 5 -10z"/>
<path d="M2485 2608 c22 -11 56 -34 75 -52 l35 -31 -30 33 c-27 31 -93 73
-112 72 -4 -1 10 -10 32 -22z"/>
<path d="M2038 2613 c23 -2 61 -2 85 0 23 2 4 4 -43 4 -47 0 -66 -2 -42 -4z"/>
<path d="M1946 2601 c-3 -4 6 -6 19 -3 14 2 25 6 25 8 0 8 -39 4 -44 -5z"/>
<path d="M2183 2603 c9 -2 25 -2 35 0 9 3 1 5 -18 5 -19 0 -27 -2 -17 -5z"/>
<path d="M2691 2580 c14 -31 19 -36 19 -24 0 6 -7 19 -16 30 -14 18 -14 18 -3
-6z"/>
<path d="M2310 2575 c24 -8 46 -13 48 -11 5 5 -59 26 -77 25 -9 0 4 -7 29 -14z"/>
<path d="M1864 2534 c-11 -28 -17 -76 -17 -131 -1 -96 19 -282 34 -316 8 -19
8 -18 4 8 -4 24 -22 253 -27 340 -3 47 3 74 26 107 16 24 19 35 10 35 -8 0
-21 -20 -30 -43z"/>
<path d="M2380 2550 c0 -5 5 -10 10 -10 6 0 37 -17 68 -37 82 -55 82 -54 82
-49 0 6 -102 76 -137 95 -15 7 -23 8 -23 1z"/>
<path d="M2600 2500 c6 -11 13 -20 16 -20 2 0 0 9 -6 20 -6 11 -13 20 -16 20
-2 0 0 -9 6 -20z"/>
<path d="M2722 2500 c0 -14 2 -19 5 -12 2 6 2 18 0 25 -3 6 -5 1 -5 -13z"/>
<path d="M2733 2395 c0 -33 2 -45 4 -27 2 18 2 45 0 60 -2 15 -4 0 -4 -33z"/>
<path d="M2599 2377 l44 -58 -60 -97 c-101 -166 -99 -161 -76 -134 10 12 47
69 82 127 l63 103 -30 44 c-17 24 -38 51 -48 59 -10 8 2 -12 25 -44z"/>
<path d="M2672 2390 c-7 -11 -12 -28 -11 -37 0 -11 7 -5 15 16 17 38 14 50 -4
21z"/>
<path d="M1832 2280 c0 -19 2 -27 5 -17 2 9 2 25 0 35 -3 9 -5 1 -5 -18z"/>
<path d="M2742 2290 c0 -14 2 -19 5 -12 2 6 2 18 0 25 -3 6 -5 1 -5 -13z"/>
<path d="M1822 2205 c0 -16 2 -22 5 -12 2 9 2 23 0 30 -3 6 -5 -1 -5 -18z"/>
<path d="M2760 2216 c0 -11 50 -106 55 -106 3 0 -7 24 -21 53 -28 55 -34 65
-34 53z"/>
<path d="M1812 2135 c0 -16 2 -22 5 -12 2 9 2 23 0 30 -3 6 -5 -1 -5 -18z"/>
<path d="M1802 2080 c0 -14 2 -19 5 -12 2 6 2 18 0 25 -3 6 -5 1 -5 -13z"/>
<path d="M2841 2065 c0 -5 6 -21 14 -35 8 -14 14 -20 14 -15 0 6 -6 21 -14 35
-8 14 -14 21 -14 15z"/>
<path d="M1891 2044 c0 -11 3 -14 6 -6 3 7 2 16 -1 19 -3 4 -6 -2 -5 -13z"/>
<path d="M2469 2043 c-13 -16 -12 -17 4 -4 9 7 17 15 17 17 0 8 -8 3 -21 -13z"/>
<path d="M1791 2034 c0 -11 3 -14 6 -6 3 7 2 16 -1 19 -3 4 -6 -2 -5 -13z"/>
<path d="M1906 2000 c11 -44 41 -94 83 -142 28 -31 37 -48 29 -52 -7 -3 -3 -3
9 -1 27 7 37 -8 23 -37 l-11 -23 18 21 c13 16 23 20 38 14 34 -14 128 -11 159
5 16 9 31 14 33 12 7 -8 -35 -37 -73 -52 l-39 -15 35 6 35 5 -55 -51 -55 -52
50 40 c49 40 100 98 171 197 l36 50 -58 -59 c-66 -66 -104 -86 -166 -86 -90 1
-188 76 -239 184 -16 33 -27 50 -23 36z"/>
<path d="M2440 2005 c-7 -9 -11 -17 -9 -20 3 -2 10 5 17 15 14 24 10 26 -8 5z"/>
<path d="M1781 1994 c0 -11 3 -14 6 -6 3 7 2 16 -1 19 -3 4 -6 -2 -5 -13z"/>
<path d="M1771 1954 c0 -11 3 -14 6 -6 3 7 2 16 -1 19 -3 4 -6 -2 -5 -13z"/>
<path d="M2406 1953 c-6 -14 -5 -15 5 -6 7 7 10 15 7 18 -3 3 -9 -2 -12 -12z"/>
<path d="M2891 1955 c0 -5 29 -66 64 -135 35 -69 64 -120 64 -115 0 6 -29 66
-64 135 -35 69 -64 121 -64 115z"/>
<path d="M1751 1884 c0 -11 3 -14 6 -6 3 7 2 16 -1 19 -3 4 -6 -2 -5 -13z"/>
<path d="M1731 1814 c0 -11 3 -14 6 -6 3 7 2 16 -1 19 -3 4 -6 -2 -5 -13z"/>
<path d="M1721 1777 c-1 -10 4 -28 10 -39 12 -23 10 -26 -52 -71 -31 -23 -6
-11 49 24 30 19 38 28 28 32 -9 4 -19 21 -25 39 -5 18 -10 25 -10 15z"/>
<path d="M1858 1753 c7 -3 16 -2 19 1 4 3 -2 6 -13 5 -11 0 -14 -3 -6 -6z"/>
<path d="M1790 1730 c-8 -5 -10 -10 -5 -10 6 0 17 5 25 10 8 5 11 10 5 10 -5
0 -17 -5 -25 -10z"/>
<path d="M2106 1714 c-32 -11 -41 -12 -48 -2 -5 9 -8 8 -8 -4 0 -10 6 -18 13
-17 19 1 114 37 97 38 -8 0 -33 -7 -54 -15z"/>
<path d="M1920 1660 c0 -6 7 -10 15 -10 8 0 15 2 15 4 0 2 -7 6 -15 10 -8 3
-15 1 -15 -4z"/>
<path d="M1622 1613 c-10 -16 -24 -38 -31 -50 -21 -41 -5 -24 27 27 33 54 36
68 4 23z"/>
<path d="M2100 1615 c-7 -8 -19 -15 -28 -15 -8 0 -13 -3 -9 -6 3 -3 -6 -17
-21 -30 -15 -13 -22 -23 -17 -23 14 0 112 89 99 89 -6 0 -17 -7 -24 -15z"/>
<path d="M3047 1623 c-10 -9 -9 -23 2 -20 5 1 17 -7 26 -18 l16 -20 -10 20
c-18 35 -27 45 -34 38z"/>
<path d="M1934 1593 l19 -23 -34 -1 c-32 -2 -32 -2 -5 -6 40 -6 51 9 24 33
l-23 19 19 -22z"/>
<path d="M1988 1573 c7 -3 16 -2 19 1 4 3 -2 6 -13 5 -11 0 -14 -3 -6 -6z"/>
<path d="M2970 1503 l-55 -58 58 55 c53 50 62 60 54 60 -1 0 -27 -26 -57 -57z"/>
<path d="M3101 1540 c0 -3 6 -25 13 -50 8 -25 15 -36 15 -25 0 17 -26 88 -28
75z"/>
<path d="M1920 1464 c-41 -35 -122 -97 -180 -136 -119 -81 -144 -101 -82 -67
79 44 370 268 347 268 -5 0 -44 -29 -85 -65z"/>
<path d="M1553 1415 c0 -33 2 -45 4 -27 2 18 2 45 0 60 -2 15 -4 0 -4 -33z"/>
<path d="M3134 1355 c0 -49 1 -71 3 -48 2 23 2 64 0 90 -2 26 -3 8 -3 -42z"/>
<path d="M2835 1368 l-50 -53 53 50 c28 27 52 51 52 52 0 8 -9 -1 -55 -49z"/>
<path d="M2334 1368 l-19 -23 23 19 c21 18 27 26 19 26 -2 0 -12 -10 -23 -22z"/>
<path d="M1562 1310 c0 -19 2 -27 5 -17 2 9 2 25 0 35 -3 9 -5 1 -5 -18z"/>
<path d="M2274 1318 l-19 -23 23 19 c21 18 27 26 19 26 -2 0 -12 -10 -23 -22z"/>
<path d="M2725 1268 l-50 -53 53 50 c28 27 52 51 52 52 0 8 -9 -1 -55 -49z"/>
<path d="M2214 1268 l-19 -23 23 19 c21 18 27 26 19 26 -2 0 -12 -10 -23 -22z"/>
<path d="M1571 1249 c0 -15 -8 -32 -16 -39 -8 -7 -15 -16 -15 -21 0 -5 8 -1
18 9 10 9 27 22 38 29 14 9 14 11 2 7 -11 -4 -18 1 -21 18 -4 22 -4 21 -6 -3z"/>
<path d="M2159 1223 c-13 -16 -12 -17 4 -4 16 13 21 21 13 21 -2 0 -10 -8 -17
-17z"/>
<path d="M2615 1168 l-50 -53 53 50 c28 27 52 51 52 52 0 8 -9 -1 -55 -49z"/>
<path d="M3124 1130 c0 -52 1 -74 3 -47 2 26 2 68 0 95 -2 26 -3 4 -3 -48z"/>
<path d="M2109 1183 c-13 -16 -12 -17 4 -4 16 13 21 21 13 21 -2 0 -10 -8 -17
-17z"/>
<path d="M2059 1143 c-13 -16 -12 -17 4 -4 9 7 17 15 17 17 0 8 -8 3 -21 -13z"/>
<path d="M2009 1103 c-13 -16 -12 -17 4 -4 16 13 21 21 13 21 -2 0 -10 -8 -17
-17z"/>
<path d="M2505 1068 l-50 -53 53 50 c48 46 57 55 49 55 -1 0 -25 -24 -52 -52z"/>
<path d="M1561 1084 c0 -11 3 -14 6 -6 3 7 2 16 -1 19 -3 4 -6 -2 -5 -13z"/>
<path d="M1495 1027 c-8 -12 -15 -26 -15 -32 1 -5 7 2 16 17 12 24 18 26 40
18 14 -6 23 -6 20 -1 -13 20 -46 19 -61 -2z"/>
<path d="M2395 968 l-50 -53 53 50 c48 46 57 55 49 55 -1 0 -25 -24 -52 -52z"/>
<path d="M1860 1000 c-9 -6 -10 -10 -3 -10 6 0 15 5 18 10 8 12 4 12 -15 0z"/>
<path d="M3114 905 c0 -49 1 -71 3 -48 2 23 2 64 0 90 -2 26 -3 8 -3 -42z"/>
<path d="M1743 973 c9 -2 25 -2 35 0 9 3 1 5 -18 5 -19 0 -27 -2 -17 -5z"/>
<path d="M1461 934 c0 -12 7 -28 17 -35 15 -12 16 -12 6 1 -7 8 -14 24 -17 35
-4 19 -5 19 -6 -1z"/>
<path d="M2285 868 l-50 -53 53 50 c48 46 57 55 49 55 -1 0 -25 -24 -52 -52z"/>
<path d="M1501 834 c0 -11 3 -14 6 -6 3 7 2 16 -1 19 -3 4 -6 -2 -5 -13z"/>
<path d="M2200 804 c-17 -9 -20 -14 -9 -14 9 0 22 7 29 15 15 18 13 18 -20 -1z"/>
<path d="M1773 782 l-333 -2 0 -115 0 -115 860 0 860 0 0 115 0 115 -27 0
c-16 0 -253 1 -528 2 -275 2 -650 2 -832 0z m87 -117 c0 -19 -2 -35 -4 -35 -2
0 -6 16 -8 35 -2 19 0 35 4 35 4 0 8 -16 8 -35z m457 29 c-3 -3 -12 -4 -19 -1
-8 3 -5 6 6 6 11 1 17 -2 13 -5z m508 -34 c0 -33 -2 -35 -35 -35 -33 0 -35 2
-38 38 l-3 38 38 -3 c36 -3 38 -5 38 -38z m-1018 13 c-4 -3 -1 -13 6 -22 11
-14 10 -14 -5 -2 -16 12 -16 31 -1 31 4 0 3 -3 0 -7z m530 -15 c-3 -8 -6 -5
-6 6 -1 11 2 17 5 13 3 -3 4 -12 1 -19z"/>
<path d="M2760 660 c0 -27 3 -30 30 -30 27 0 30 3 30 30 0 27 -3 30 -30 30
-27 0 -30 -3 -30 -30z"/>
<path d="M1365 332 c11 -13 29 -28 40 -34 21 -11 18 -8 -30 32 -29 24 -29 24
-10 2z"/>
<path d="M3175 305 c-22 -14 -35 -25 -30 -25 12 0 75 38 75 45 0 7 -1 7 -45
-20z"/>
</g>
</svg>
